<svg xmlns="http://www.w3.org/2000/svg" xmlns:xlink="http://www.w3.org/1999/xlink" width="64" height="64" viewBox="0 0 64 64" fill="none"><path     fill="#FFFFFF" fill-opacity="0" d="M0 64L64 64L64 0L0 0L0 64Z"></path><path d="M22.5 12Q22.6228 12 22.745 12.012Q22.8673 12.0241 22.9877 12.048Q23.1082 12.072 23.2257 12.1076Q23.3432 12.1433 23.4567 12.1903Q23.5702 12.2373 23.6785 12.2952Q23.7868 12.3531 23.8889 12.4213Q23.991 12.4896 24.086 12.5675Q24.1809 12.6454 24.2678 12.7322Q24.3546 12.8191 24.4325 12.914Q24.5104 13.009 24.5787 13.1111Q24.6469 13.2132 24.7048 13.3215Q24.7627 13.4298 24.8097 13.5433Q24.8567 13.6568 24.8924 13.7743Q24.928 13.8918 24.952 14.0123Q24.9759 14.1327 24.988 14.255Q25 14.3772 25 14.5C25 15.8807 26.1193 17 27.5 17L52.2 17C53.88 17 54.72 17 55.36 17.33Q55.783 17.5456 56.1187 17.8813Q56.4544 18.217 56.67 18.64C57 19.28 57 20.12 57 21.8L57 47.2C57 48.88 57 49.72 56.67 50.36Q56.4544 50.783 56.1187 51.1187Q55.783 51.4544 55.36 51.67C54.72 52 53.88 52 52.2 52L11.8 52C10.12 52 9.28 52 8.64 51.67Q8.21705 51.4544 7.88135 51.1187Q7.54564 50.783 7.33 50.36C7 49.72 7 48.88 7 47.2L7 14.5Q7 14.3772 7.01204 14.255Q7.02408 14.1327 7.04804 14.0123Q7.072 13.8918 7.10765 13.7743Q7.1433 13.6568 7.1903 13.5433Q7.2373 13.4298 7.2952 13.3215Q7.35309 13.2132 7.42133 13.1111Q7.48956 13.009 7.56747 12.914Q7.64539 12.8191 7.73223 12.7322Q7.81908 12.6454 7.91402 12.5675Q8.00896 12.4896 8.11107 12.4213Q8.21319 12.3531 8.32151 12.2952Q8.42982 12.2373 8.54329 12.1903Q8.65676 12.1433 8.77429 12.1076Q8.89182 12.072 9.01227 12.048Q9.13273 12.0241 9.25496 12.012Q9.37718 12 9.5 12L22.5 12Z" fill-rule="evenodd"  fill="#FFFFFF" ></path><g filter="url(#filter_1_6)"><path d="M25 14.5Q25 14.3772 24.988 14.255Q24.9759 14.1327 24.952 14.0123Q24.928 13.8918 24.8923 13.7743Q24.8567 13.6568 24.8097 13.5433Q24.7627 13.4298 24.7048 13.3215Q24.6469 13.2132 24.5787 13.1111Q24.5104 13.009 24.4325 12.914Q24.3546 12.8191 24.2678 12.7322Q24.1809 12.6454 24.086 12.5675Q23.991 12.4896 23.8889 12.4213Q23.7868 12.3531 23.6785 12.2952Q23.5702 12.2373 23.4567 12.1903Q23.3432 12.1433 23.2257 12.1076Q23.1082 12.072 22.9877 12.048Q22.8673 12.0241 22.745 12.012Q22.6228 12 22.5 12L9.5 12Q9.37718 12 9.25496 12.012Q9.13273 12.0241 9.01227 12.048Q8.89182 12.072 8.77429 12.1076Q8.65676 12.1433 8.54329 12.1903Q8.42982 12.2373 8.32151 12.2952Q8.21319 12.3531 8.11107 12.4213Q8.00896 12.4896 7.91402 12.5675Q7.81908 12.6454 7.73223 12.7322Q7.64539 12.8191 7.56747 12.914Q7.48956 13.009 7.42133 13.1111Q7.35309 13.2132 7.2952 13.3215Q7.2373 13.4298 7.1903 13.5433Q7.1433 13.6568 7.10765 13.7743Q7.072 13.8918 7.04804 14.0123Q7.02408 14.1327 7.01204 14.255Q7 14.3772 7 14.5L7 47.2035C7 48.8812 7.00023 49.7204 7.33 50.36Q7.54564 50.783 7.88135 51.1187Q8.21705 51.4544 8.64 51.67C9.12296 51.919 9.71981 51.9801 10.7056 51.9951C11.0261 52 11.3878 52 11.8 52L52.2 52C52.41 52 52.6069 52 52.7919 51.9993C54.0869 51.9948 54.8 51.9587 55.36 51.67Q55.783 51.4544 56.1187 51.1187Q56.4544 50.783 56.67 50.36C56.9378 49.8407 56.9883 49.1897 56.9978 48.0651C57 47.8047 57 47.5189 57 47.2035L57 21.8C57 20.12 57 19.28 56.67 18.64Q56.4544 18.217 56.1187 17.8813Q55.783 17.5456 55.36 17.33C54.72 17 53.88 17 52.2 17L27.5 17C26.1193 17 25 15.8807 25 14.5Z" fill-rule="evenodd"  fill="url(#linear_fill_1_6)" ></path></g><g filter="url(#filter_1_9)"><path d="M39.7942 38.5L39.7942 29.5L32 25L24.2057 29.5L24.2057 38.5L32 43L39.7942 38.5ZM37.1961 37L37.1961 31L32 28L26.8038 31L26.8038 37L32 40L37.1961 37Z" fill-rule="evenodd"  fill="#FFFFFF" ></path></g><defs><linearGradient id="linear_fill_1_6" x1="7" y1="32" x2="87.53450012207031" y2="17.606800079345703" gradientUnits="userSpaceOnUse"><stop offset="0" stop-color="#0078D4"  /><stop offset="1" stop-color="#29E0E3" stop-opacity="0.01" /></linearGradient><filter id="filter_1_6" x="4" y="9" width="58" height="47.999969482421875" filterUnits="userSpaceOnUse" color-interpolation-filters="sRGB"><feFlood flood-opacity="0" result="feFloodId_1_6"/><feColorMatrix in="SourceAlpha" type="matrix" values="0 0 0 0 0 0 0 0 0 0 0 0 0 0 0 0 0 0 127 0" result="hardAlpha_1_6"/><feOffset dx="1" dy="1"/><feGaussianBlur stdDeviation="2"/><feComposite in2="hardAlpha_1_6" operator="out"/><feColorMatrix type="matrix" values="0 0 0 0 0 0 0 0 0 0 0 0 0 0 0 0 0 0 0.25 0"/><feBlend mode="normal" in2="feFloodId_1_6" result="dropShadow_1_1_6"/><feBlend mode="normal" in="SourceGraphic" in2="dropShadow_1_1_6" result="shape_1_6"/></filter><filter id="filter_1_9" x="24.20574378967285" y="25" width="15.588457107543945" height="18" filterUnits="userSpaceOnUse" color-interpolation-filters="sRGB"><feFlood flood-opacity="0" result="feFloodId_1_9"/><feBlend mode="normal" in="SourceGraphic" in2="feFloodId_1_9" result="shape_1_9"/><feColorMatrix in="SourceAlpha" type="matrix" values="0 0 0 0 0 0 0 0 0 0 0 0 0 0 0 0 0 0 127 0" result="hardAlpha_1_9"/><feOffset dx="2" dy="2"/><feGaussianBlur stdDeviation="2"/><feComposite in2="hardAlpha_1_9" operator="arithmetic" k2="-1" k3="1"/><feColorMatrix type="matrix" values="0 0 0 0 0 0 0 0 0 0 0 0 0 0 0 0 0 0 0.25 0"/><feBlend mode="normal" in2="shape_1_9" result="innerShadow_0_1_9" /></filter></defs></svg>